<svg id="Calque_1" data-name="Calque 1" xmlns="http://www.w3.org/2000/svg" viewBox="0 0 619.59 262.95"><defs><style>.cls-1{fill:#fff;}.cls-2{fill:#f81022;}</style></defs><path class="cls-1" d="M820.87,833.2l19.29,48.15,19.29-48.15h10.09v59h-7.78v-23l.73-24.8-19.37,47.78h-6l-19.33-47.66.77,24.68v23h-7.78v-59Z" transform="translate(-493.03 -828.82)"/><path class="cls-1" d="M915.87,876.77H891.14l-5.55,15.44h-8l22.53-59h6.81l22.57,59h-8ZM893.5,870.4h20.06l-10-27.6Z" transform="translate(-493.03 -828.82)"/><path class="cls-1" d="M945.78,892.21H938v-59h7.79Z" transform="translate(-493.03 -828.82)"/><path class="cls-1" d="M977.39,865.9q-10-2.86-14.57-7.07a13.49,13.49,0,0,1-4.56-10.35A14.28,14.28,0,0,1,963.83,837q5.58-4.56,14.49-4.56a24.12,24.12,0,0,1,10.84,2.35,18,18,0,0,1,7.38,6.48,16.62,16.62,0,0,1,2.61,9h-7.82a10.8,10.8,0,0,0-3.41-8.44c-2.26-2-5.47-3.07-9.6-3.07q-5.76,0-9,2.54a8.48,8.48,0,0,0-3.22,7,7.61,7.61,0,0,0,3.06,6.11q3.06,2.5,10.42,4.57a48.47,48.47,0,0,1,11.51,4.56,17.61,17.61,0,0,1,6.16,5.82,14.91,14.91,0,0,1,2,7.82,13.79,13.79,0,0,1-5.59,11.49q-5.59,4.32-15,4.32a27.76,27.76,0,0,1-11.34-2.33,19.16,19.16,0,0,1-8.13-6.39,15.59,15.59,0,0,1-2.86-9.2h7.83a10.13,10.13,0,0,0,3.95,8.45q3.95,3.11,10.55,3.1c4.11,0,7.26-.83,9.45-2.51a8.15,8.15,0,0,0,3.28-6.85,8,8,0,0,0-3-6.7Q985.37,868.21,977.39,865.9Z" transform="translate(-493.03 -828.82)"/><path class="cls-1" d="M1054.63,864.61a36.45,36.45,0,0,1-2.92,15.14,22.12,22.12,0,0,1-8.26,9.86A22.77,22.77,0,0,1,1031,893a22,22,0,0,1-20.73-13.19,35.24,35.24,0,0,1-3.06-14.7v-4.25a36.14,36.14,0,0,1,3-15,21.87,21.87,0,0,1,20.75-13.45,22.93,22.93,0,0,1,12.51,3.42,22.13,22.13,0,0,1,8.32,9.93,36.61,36.61,0,0,1,2.92,15.14Zm-7.74-3.81q0-10.5-4.21-16.11t-11.8-5.61a13.76,13.76,0,0,0-11.61,5.61q-4.23,5.61-4.35,15.58v4.34q0,10.17,4.27,16a13.83,13.83,0,0,0,11.77,5.81q7.55,0,11.68-5.49t4.25-15.74Z" transform="translate(-493.03 -828.82)"/><path class="cls-1" d="M1111.65,892.21h-7.82l-29.7-45.47v45.47h-7.83v-59h7.83l29.78,45.67V833.2h7.74Z" transform="translate(-493.03 -828.82)"/><path class="cls-1" d="M843.36,965.75H818.6v26.06h-7.78v-59h36.56v6.36H818.6v20.23h24.76Z" transform="translate(-493.03 -828.82)"/><path class="cls-1" d="M878.34,967.94H864.48v23.87h-7.82v-59h19.53q10,0,15.34,4.54t5.37,13.21a15.87,15.87,0,0,1-3,9.61,17.79,17.79,0,0,1-8.29,6.11l13.86,25.05v.49h-8.35Zm-13.86-6.37h11.95q5.8,0,9.22-3a10.13,10.13,0,0,0,3.43-8q0-5.47-3.26-8.4t-9.43-3H864.48Z" transform="translate(-493.03 -828.82)"/><path class="cls-1" d="M940.39,976.37H915.66l-5.55,15.44h-8l22.53-59h6.81l22.57,59h-8ZM918,970h20.06L928,942.4Z" transform="translate(-493.03 -828.82)"/><path class="cls-1" d="M1007.3,991.81h-7.83l-29.7-45.47v45.47H962v-59h7.82l29.79,45.67V932.8h7.74Z" transform="translate(-493.03 -828.82)"/><path class="cls-1" d="M1064.52,973.08q-1.1,9.36-6.91,14.45t-15.46,5.09q-10.45,0-16.76-7.5t-6.3-20.06v-5.67a33.59,33.59,0,0,1,2.94-14.47,21.94,21.94,0,0,1,8.33-9.59,23.16,23.16,0,0,1,12.48-3.34q9.4,0,15.08,5.25t6.6,14.53h-7.82q-1-7.08-4.4-10.25t-9.46-3.17a13.91,13.91,0,0,0-11.69,5.52q-4.25,5.52-4.24,15.69v5.72q0,9.62,4,15.3a13,13,0,0,0,11.23,5.67q6.48,0,9.95-2.93t4.6-10.24Z" transform="translate(-493.03 -828.82)"/><path class="cls-1" d="M1108.49,964.53h-25.57v20.91h29.71v6.37h-37.49v-59h37.08v6.36h-29.3v19h25.57Z" transform="translate(-493.03 -828.82)"/><path class="cls-1" d="M832.46,1067.54H818.6v23.87h-7.82v-59h19.53q10,0,15.34,4.54t5.37,13.21a15.81,15.81,0,0,1-3,9.6,17.8,17.8,0,0,1-8.28,6.13l13.86,25v.49h-8.35Zm-13.86-6.37h12q5.79,0,9.22-3a10.16,10.16,0,0,0,3.42-8q0-5.48-3.26-8.4t-9.42-3H818.6Z" transform="translate(-493.03 -828.82)"/><path class="cls-1" d="M895.28,1064.13H869.71V1085h29.7v6.37H861.93v-59H899v6.36h-29.3v19h25.57Z" transform="translate(-493.03 -828.82)"/><path class="cls-1" d="M919.15,1032.4l19.29,48.15,19.29-48.15h10.09v59H960v-23l.73-24.8-19.37,47.78h-6l-19.33-47.66.77,24.68v23H909.1v-59Z" transform="translate(-493.03 -828.82)"/><path class="cls-1" d="M989.91,1091.41h-7.78v-59h7.78Z" transform="translate(-493.03 -828.82)"/><path class="cls-2" d="M742.65,971.57,637.73,897.46a2,2,0,0,0-2.33,0L531.32,973.25a2,2,0,0,0-.82,1.56l-3.33,114.07a2,2,0,0,0,.57,1.45,2,2,0,0,0,1.43.61h78.27a2,2,0,0,0,2-2V991h52.62v98.75a2,2,0,0,0,2,2h77.43a2,2,0,0,0,2-2V973.2A2,2,0,0,0,742.65,971.57Z" transform="translate(-493.03 -828.82)"/><path class="cls-2" d="M778.44,929.1,636.06,829.18a2,2,0,0,0-2.32,0L493.86,930.78a2,2,0,0,0-.4,2.86l21.65,27.48a2,2,0,0,0,2.69.42l117.93-79.17,117.94,82.48a2.05,2.05,0,0,0,1.14.36,2.19,2.19,0,0,0,.36,0,2.05,2.05,0,0,0,1.29-.83l22.48-32.48A2,2,0,0,0,778.44,929.1Z" transform="translate(-493.03 -828.82)"/><path class="cls-2" d="M701.21,864.1l35.81,25a2,2,0,0,0,1.14.36,2,2,0,0,0,.93-.23,2,2,0,0,0,1.07-1.77v-55a2,2,0,0,0-2-2H704.21a2,2,0,0,0-2,1.82c-.05.62-.18,2.05-.19,2.61l-1.67,27.43A2,2,0,0,0,701.21,864.1Z" transform="translate(-493.03 -828.82)"/></svg>