<svg id="Calque_1" data-name="Calque 1" xmlns="http://www.w3.org/2000/svg" viewBox="0 0 628.27 262.95"><defs><style>.cls-1{fill:#fff;}.cls-2{fill:#f81022;}</style></defs><path class="cls-1" d="M827.11,833.2l13.17,41,13.13-41h18.73v59H857.87V878.43l1.38-28.21-14.27,42h-9.4l-14.3-42,1.37,28.25v13.78H808.43v-59Z" transform="translate(-493.03 -828.82)"/><path class="cls-1" d="M914.69,881.18H895.2l-3.41,11H876.6l21.64-59h13.37l21.8,59H918.14Zm-16.09-11h12.69l-6.37-20.47Z" transform="translate(-493.03 -828.82)"/><path class="cls-1" d="M952.87,892.21H938.68v-59h14.19Z" transform="translate(-493.03 -828.82)"/><path class="cls-1" d="M993.19,876.52a5.82,5.82,0,0,0-2.21-4.86,27.67,27.67,0,0,0-7.76-3.61,75.16,75.16,0,0,1-9.08-3.6q-11.46-5.64-11.47-15.49a13.93,13.93,0,0,1,2.86-8.65,18.47,18.47,0,0,1,8.09-5.83,31.26,31.26,0,0,1,11.75-2.09,27.57,27.57,0,0,1,11.41,2.27,18.07,18.07,0,0,1,7.84,6.46,16.85,16.85,0,0,1,2.8,9.59H993.23a7.13,7.13,0,0,0-2.21-5.6,8.61,8.61,0,0,0-6-2,9.72,9.72,0,0,0-6,1.68,5,5,0,0,0,.22,8.39q2.43,1.84,8.55,3.81a52.53,52.53,0,0,1,10.05,4.23q9.57,5.52,9.57,15.2a14.41,14.41,0,0,1-5.84,12.16q-5.83,4.42-16,4.42a31.71,31.71,0,0,1-13-2.58,19.55,19.55,0,0,1-8.75-7.05,18.34,18.34,0,0,1-2.94-10.31h14.27c0,3.16.81,5.49,2.45,7s4.29,2.25,8,2.25a9.21,9.21,0,0,0,5.58-1.52A5,5,0,0,0,993.19,876.52Z" transform="translate(-493.03 -828.82)"/><path class="cls-1" d="M1064.68,863.92a34.88,34.88,0,0,1-3.2,15.28,23.64,23.64,0,0,1-9.1,10.23A25.34,25.34,0,0,1,1039,893a25.7,25.7,0,0,1-13.38-3.47,23.64,23.64,0,0,1-9.1-9.91,33.85,33.85,0,0,1-3.42-14.79v-3.32a35,35,0,0,1,3.18-15.3,23.54,23.54,0,0,1,9.12-10.23,27,27,0,0,1,26.89,0,24,24,0,0,1,9.14,10.15,33.9,33.9,0,0,1,3.3,15.09Zm-14.47-2.47q0-8.81-2.93-13.36a9.43,9.43,0,0,0-8.41-4.56q-10.71,0-11.31,16.05l0,4.34q0,8.67,2.88,13.33a10,10,0,0,0,16.86.08q2.91-4.58,3-13.17Z" transform="translate(-493.03 -828.82)"/><path class="cls-1" d="M1121.3,892.21h-14.14l-20.92-36.72v36.72H1072v-59h14.22l20.87,36.72V833.2h14.19Z" transform="translate(-493.03 -828.82)"/><path class="cls-1" d="M845.59,968.3H822.65v23.51H808.43v-59H847.9v11H822.65v13.58h22.94Z" transform="translate(-493.03 -828.82)"/><path class="cls-1" d="M875.74,970.94H868v20.87H853.82v-59H877q10.5,0,16.42,4.66t5.91,13.15a19.13,19.13,0,0,1-2.49,10.2,17.65,17.65,0,0,1-7.8,6.56L901.4,991.2v.61H886.16ZM868,960h9c2.7,0,4.74-.71,6.1-2.13a9.68,9.68,0,0,0,0-11.94,8,8,0,0,0-6.08-2.18h-9Z" transform="translate(-493.03 -828.82)"/><path class="cls-1" d="M941.48,980.78H922l-3.41,11h-15.2l21.65-59H938.4l21.8,59H944.92Zm-16.09-11h12.69l-6.37-20.47Z" transform="translate(-493.03 -828.82)"/><path class="cls-1" d="M1013.78,991.81H999.64l-20.92-36.72v36.72H964.5v-59h14.22l20.88,36.72V932.8h14.18Z" transform="translate(-493.03 -828.82)"/><path class="cls-1" d="M1070.52,971.83a21.64,21.64,0,0,1-3.32,10.88,20,20,0,0,1-8.54,7.31,29,29,0,0,1-12.54,2.6q-11.62,0-18.32-7.58t-6.68-21.4v-2.92a35.71,35.71,0,0,1,3-15.17,22.93,22.93,0,0,1,8.7-10.06A24.28,24.28,0,0,1,1046,932q10.74,0,17.26,5.65t7.42,15.58h-14.18q-.17-5.38-2.72-7.74c-1.7-1.56-4.3-2.35-7.78-2.35s-6.13,1.33-7.78,4-2.51,6.88-2.6,12.69v4.17q0,9.45,2.38,13.5t8.16,4.05q4.91,0,7.5-2.31t2.75-7.33Z" transform="translate(-493.03 -828.82)"/><path class="cls-1" d="M1113.84,966.76h-22.37v14.1h26.43v10.95h-40.65v-59H1118v11h-26.51v12.44h22.37Z" transform="translate(-493.03 -828.82)"/><path class="cls-1" d="M830.35,1070.54h-7.7v20.87H808.43v-59h23.22q10.5,0,16.41,4.65t5.92,13.16a19.19,19.19,0,0,1-2.49,10.21,17.69,17.69,0,0,1-7.8,6.55L856,1090.8v.61H840.77Zm-7.7-11h9c2.7,0,4.74-.71,6.1-2.13a9.68,9.68,0,0,0,0-11.94,8,8,0,0,0-6.08-2.18h-9Z" transform="translate(-493.03 -828.82)"/><path class="cls-1" d="M899.17,1066.36H876.8v14.1h26.42v11H862.57v-59H903.3v11H876.8v12.44h22.37Z" transform="translate(-493.03 -828.82)"/><path class="cls-1" d="M927.7,1032.4l13.17,41,13.13-41h18.73v59H958.46v-13.78l1.38-28.21-14.27,42h-9.4l-14.31-42,1.38,28.25v13.78H909v-59Z" transform="translate(-493.03 -828.82)"/><path class="cls-1" d="M996.92,1091.41H982.74v-59h14.18Z" transform="translate(-493.03 -828.82)"/><path class="cls-2" d="M742.65,971.57,637.73,897.46a2,2,0,0,0-2.33,0L531.32,973.25a2,2,0,0,0-.82,1.56l-3.33,114.07a2,2,0,0,0,.57,1.45,2,2,0,0,0,1.43.61h78.27a2,2,0,0,0,2-2V991h52.62v98.75a2,2,0,0,0,2,2h77.43a2,2,0,0,0,2-2V973.2A2,2,0,0,0,742.65,971.57Z" transform="translate(-493.03 -828.82)"/><path class="cls-2" d="M778.44,929.1,636.06,829.18a2,2,0,0,0-2.32,0L493.86,930.78a2,2,0,0,0-.4,2.86l21.65,27.48a2,2,0,0,0,2.69.42l117.93-79.17,117.94,82.48a2.05,2.05,0,0,0,1.14.36,2.19,2.19,0,0,0,.36,0,2.05,2.05,0,0,0,1.29-.83l22.48-32.48A2,2,0,0,0,778.44,929.1Z" transform="translate(-493.03 -828.82)"/><path class="cls-2" d="M701.21,864.1l35.81,25a2,2,0,0,0,1.14.36,2,2,0,0,0,.93-.23,2,2,0,0,0,1.07-1.77v-55a2,2,0,0,0-2-2H704.21a2,2,0,0,0-2,1.82c-.05.62-.18,2.05-.19,2.61l-1.67,27.43A2,2,0,0,0,701.21,864.1Z" transform="translate(-493.03 -828.82)"/></svg>